<svg baseProfile="full" height="48" version="1.1" viewBox="0 0 48 48" width="48" xmlns="http://www.w3.org/2000/svg" xmlns:ev="http://www.w3.org/2001/xml-events" xmlns:xlink="http://www.w3.org/1999/xlink"><defs /><path d="M 27.00 39.50 L 26.00 39.50 L 25.00 39.50 L 24.00 39.50 L 23.00 39.50 L 22.00 39.50 L 21.00 39.50 L 20.50 39.00 L 20.00 38.50 L 19.00 38.50 L 18.00 38.50 L 17.00 38.50 L 16.50 38.00 L 16.00 37.50 L 15.50 37.00 L 15.00 36.50 L 14.50 36.00 L 14.00 35.50 L 13.00 35.50 L 12.50 35.00 L 12.50 34.00 L 12.00 33.50 L 11.50 33.00 L 11.50 32.00 L 11.00 31.50 L 10.50 31.00 L 10.50 30.00 L 10.00 29.50 L 9.50 29.00 L 9.00 28.50 L 8.50 28.00 L 8.50 27.00 L 8.50 26.00 L 8.50 25.00 L 8.50 24.00 L 8.50 23.00 L 8.50 22.00 L 8.50 21.00 L 8.50 20.00 L 9.00 19.50 L 9.50 19.00 L 9.50 18.00 L 10.00 17.50 L 10.50 17.00 L 10.50 16.00 L 11.00 15.50 L 11.50 15.00 L 11.50 14.00 L 12.00 13.50 L 12.50 13.00 L 13.00 12.50 L 13.50 12.00 L 14.00 11.50 L 15.00 11.50 L 15.50 11.00 L 16.00 10.50 L 17.00 10.50 L 17.50 10.00 L 18.00 9.50 L 18.50 9.00 L 19.00 8.50 L 20.00 8.50 L 21.00 8.50 L 22.00 8.50 L 23.00 8.50 L 24.00 8.50 L 25.00 8.50 L 26.00 8.50 L 27.00 8.50 L 28.00 8.50 L 28.50 9.00 L 29.00 9.50 L 30.00 9.50 L 30.50 10.00 L 31.00 10.50 L 32.00 10.50 L 32.50 11.00 L 33.00 11.50 L 33.50 12.00 L 34.00 12.50 L 34.50 13.00 L 35.00 13.50 L 35.50 14.00 L 35.50 15.00 L 35.50 16.00 L 35.50 17.00 L 35.00 17.50 L 34.00 17.50 L 33.50 18.00 L 33.00 18.50 L 32.50 19.00 L 32.50 20.00 L 32.00 20.50 L 31.50 21.00 L 31.00 21.50 L 30.50 22.00 L 30.00 22.50 L 29.50 23.00 L 29.00 23.50 L 28.50 24.00 L 28.00 24.50 L 27.50 25.00 L 27.50 26.00 L 27.00 26.50 L 26.50 27.00 L 26.00 27.50 L 25.50 28.00 L 25.50 29.00 L 25.50 30.00 L 26.00 30.50 L 26.50 30.00 L 27.00 29.50 L 28.00 29.50 L 29.00 29.50 L 29.50 29.00 L 30.00 28.50 L 31.00 28.50 L 32.00 28.50 L 32.50 29.00 L 33.00 29.50 L 33.50 30.00 L 34.00 30.50 L 34.50 31.00 L 35.00 31.50 L 35.50 32.00 L 35.50 33.00 L 35.50 34.00 L 35.50 35.00 L 35.00 35.50 L 34.00 35.50 L 33.50 36.00 L 33.00 36.50 L 32.00 36.50 L 31.50 37.00 L 31.00 37.50 L 30.50 38.00 L 30.00 38.50 L 29.00 38.50 L 28.00 38.50 L 27.50 39.00 L 27.00 39.50 Z" fill="#333333" /><path d="M 19.50 24.00 L 20.00 23.50 L 20.50 23.00 L 21.00 22.50 L 21.50 22.00 L 21.50 21.00 L 22.00 20.50 L 22.50 20.00 L 23.00 19.50 L 23.50 19.00 L 23.00 18.50 L 22.50 18.00 L 22.00 17.50 L 21.00 17.50 L 20.00 17.50 L 19.50 18.00 L 19.00 18.50 L 18.50 19.00 L 18.00 19.50 L 17.50 20.00 L 17.50 21.00 L 17.50 22.00 L 17.50 23.00 L 18.00 23.50 L 18.50 24.00 L 19.00 24.50 L 19.50 24.00 Z" fill="#333333" /></svg>