<svg width="105" height="30" viewBox="0 0 105 30" fill="none" xmlns="http://www.w3.org/2000/svg">
<path fill-rule="evenodd" clip-rule="evenodd" d="M65.4755 5.48963C65.6541 5.09413 65.7434 4.66867 65.7434 4.21325C65.7434 3.76981 65.6541 3.35035 65.4755 2.95485C65.3088 2.54737 65.0766 2.19981 64.7789 1.91217C64.4813 1.61255 64.13 1.37885 63.7252 1.21106C63.3323 1.03129 62.9096 0.941406 62.4571 0.941406C62.0047 0.941406 61.576 1.03129 61.1712 1.21106C60.7783 1.37885 60.433 1.61255 60.1353 1.91217C59.8495 2.19981 59.6174 2.54737 59.4388 2.95485C59.2721 3.35035 59.1887 3.76981 59.1887 4.21325C59.1887 4.66867 59.2721 5.09413 59.4388 5.48963C59.6174 5.88513 59.8495 6.23268 60.1353 6.5323C60.433 6.81994 60.7783 7.05364 61.1712 7.23341C61.576 7.4012 62.0047 7.48509 62.4571 7.48509C62.9096 7.48509 63.3323 7.4012 63.7252 7.23341C64.13 7.05364 64.4813 6.81994 64.7789 6.5323C65.0766 6.23268 65.3088 5.88513 65.4755 5.48963ZM59.9924 28.6981H64.904V9.4446H59.9924V28.6981ZM44.2933 28.6981H39.4175V1.78633H44.2933V10.2895C44.8767 9.84609 45.478 9.53449 46.0972 9.35472C46.7163 9.16296 47.3474 9.06708 47.9904 9.06708C49.1691 9.06708 50.2765 9.29479 51.3124 9.75022C52.3483 10.1937 53.2472 10.8109 54.0092 11.6019C54.7832 12.3809 55.3904 13.2977 55.831 14.3524C56.2834 15.395 56.5097 16.5096 56.5097 17.6961V28.6981H51.5981V17.6961H51.6338C51.6338 17.1928 51.5386 16.7194 51.3481 16.2759C51.1576 15.8205 50.8956 15.425 50.5622 15.0894C50.2288 14.7539 49.8419 14.4902 49.4013 14.2984C48.9608 14.1067 48.4904 14.0108 47.9904 14.0108C47.4784 14.0108 46.9961 14.1067 46.5437 14.2984C46.0912 14.4902 45.6983 14.7539 45.3649 15.0894C45.0315 15.425 44.7696 15.8205 44.5791 16.2759C44.3886 16.7194 44.2933 17.1928 44.2933 17.6961V28.6981ZM17.6555 12.7346L5.06396 27.8639C4.25097 27.4164 3.51553 26.8615 2.85763 26.1993C1.97653 25.3005 1.27998 24.2338 0.767989 22.9994C0.255996 21.753 0 20.3867 0 18.9006C0 17.3785 0.255996 15.9883 0.767989 14.7299C1.27998 13.4715 1.97653 12.3989 2.85763 11.512C3.75064 10.6251 4.78653 9.93598 5.96531 9.4446C7.15599 8.95323 8.42406 8.70754 9.76953 8.70754C10.5673 8.70754 11.3472 8.80342 12.1092 8.99517C12.8713 9.18693 13.5916 9.46258 14.2703 9.82212C14.9609 10.1817 15.6039 10.6251 16.1992 11.1524C16.7446 11.6245 17.23 12.1519 17.6555 12.7346ZM9.47489 24.1272L5.99086 28.3134C7.17413 28.8096 8.43368 29.0577 9.76953 29.0577C10.5673 29.0577 11.3412 28.9618 12.0914 28.7701C12.8534 28.5903 13.5738 28.3206 14.2524 27.9611C14.943 27.6015 15.58 27.1641 16.1635 26.6487C16.7588 26.1334 17.2827 25.5521 17.7352 24.905L14.1631 21.2916C13.9726 21.723 13.7226 22.1185 13.413 22.478C13.1153 22.8256 12.77 23.1252 12.3771 23.3769C11.9961 23.6166 11.5853 23.8024 11.1448 23.9342C10.7042 24.066 10.2458 24.1319 9.76953 24.1319C9.67132 24.1319 9.5731 24.1304 9.47489 24.1272ZM10.4482 13.7052C10.6744 13.7292 10.9007 13.7831 11.1269 13.867L5.44736 21.4533C5.35211 21.2856 5.27471 21.0938 5.21518 20.8781C5.15564 20.6624 5.10206 20.4406 5.05444 20.2129C5.01872 19.9732 4.98895 19.7395 4.96514 19.5118C4.95323 19.2841 4.94728 19.0804 4.94728 18.9006C4.94728 18.0976 5.0723 17.3785 5.32234 16.7433C5.57238 16.0962 5.91173 15.5449 6.34037 15.0894C6.78092 14.634 7.29292 14.2865 7.87635 14.0468C8.47169 13.7951 9.10275 13.6692 9.76953 13.6692C10.0077 13.6692 10.2339 13.6812 10.4482 13.7052ZM31.7019 28.6981H37.6672L31.0726 19.4019L28.256 23.3571L31.7019 28.6981ZM18.0924 28.6981H23.2249L37.0126 9.33674H31.7019L27.8976 14.8557L24.0577 9.33674H18.0924L25.0757 18.8287L18.0924 28.6981ZM74.0663 28.6981L66.7793 9.4446H72.3338L76.5131 21.4533L80.6745 9.4446H86.2469L78.9599 28.6981H74.0663ZM104.13 12.6796L91.5198 27.8312C90.7302 27.3894 90.0144 26.8455 89.3724 26.1993C88.4913 25.3005 87.7948 24.2338 87.2828 22.9994C86.7708 21.753 86.5148 20.3867 86.5148 18.9006C86.5148 17.3785 86.7708 15.9883 87.2828 14.7299C87.7948 13.4715 88.4913 12.3989 89.3724 11.512C90.2655 10.6251 91.3013 9.93598 92.4801 9.4446C93.6708 8.95323 94.9389 8.70754 96.2843 8.70754C97.0821 8.70754 97.862 8.80342 98.624 8.99517C99.3861 9.18693 100.106 9.46258 100.785 9.82212C101.476 10.1817 102.119 10.6251 102.714 11.1524C103.242 11.6096 103.714 12.1187 104.13 12.6796ZM95.906 24.1241L92.442 28.2863C92.4547 28.2918 92.4674 28.2972 92.4801 28.3026C93.6708 28.806 94.9389 29.0577 96.2843 29.0577C97.0821 29.0577 97.856 28.9618 98.6062 28.7701C99.3682 28.5903 100.089 28.3206 100.767 27.9611C101.458 27.6015 102.095 27.1641 102.678 26.6487C103.274 26.1334 103.798 25.5521 104.25 24.905L100.678 21.2916C100.487 21.723 100.237 22.1185 99.9278 22.478C99.6302 22.8256 99.2849 23.1252 98.8919 23.3769C98.5109 23.6166 98.1001 23.8024 97.6596 23.9342C97.219 24.066 96.7606 24.1319 96.2843 24.1319C96.1582 24.1319 96.0321 24.1293 95.906 24.1241ZM96.963 13.7052C97.1893 13.7292 97.4155 13.7831 97.6417 13.867L91.9622 21.4533C91.8669 21.2856 91.7895 21.0938 91.73 20.8781C91.6705 20.6624 91.6169 20.4406 91.5693 20.2129C91.5335 19.9732 91.5038 19.7395 91.4799 19.5118C91.468 19.2841 91.4621 19.0804 91.4621 18.9006C91.4621 18.0976 91.5871 17.3785 91.8372 16.7433C92.0872 16.0962 92.4265 15.5449 92.8552 15.0894C93.2957 14.634 93.8077 14.2865 94.3912 14.0468C94.9865 13.7951 95.6176 13.6692 96.2843 13.6692C96.5225 13.6692 96.7487 13.6812 96.963 13.7052Z" fill="#33313A"/>
</svg>
